<?xml version="1.0" standalone="no"?>
<!DOCTYPE svg PUBLIC "-//W3C//DTD SVG 20010904//EN"
 "http://www.w3.org/TR/2001/REC-SVG-20010904/DTD/svg10.dtd">
<svg version="1.0" xmlns="http://www.w3.org/2000/svg"
 width="2048.000000pt" height="2048.000000pt" viewBox="0 0 1024.000000 1024.000000"
 preserveAspectRatio="xMidYMid meet">

<g transform="translate(0.000000,1024.000000) scale(0.100000,-0.100000)"
fill="#004a77" stroke="none">
<path d="M640 6555 c0 -2 144 -226 321 -497 177 -271 495 -760 708 -1087 l386
-593 3 527 2 528 -88 136 c-49 75 -216 328 -372 564 l-282 427 -339 0 c-187 0
-339 -2 -339 -5z"/>
<path d="M2553 5997 l-363 -562 0 -529 c0 -313 4 -526 9 -520 5 5 206 317 446
694 241 377 457 714 480 750 41 63 385 602 438 688 l27 42 -337 0 -338 -1
-362 -562z"/>
<path d="M3902 5995 l-62 -125 108 0 108 0 102 125 102 125 -148 0 -147 0 -63
-125z"/>
<path d="M7855 5790 c-185 -37 -337 -151 -424 -320 -97 -186 -114 -401 -46
-600 36 -106 80 -177 161 -257 117 -116 260 -173 439 -173 207 0 388 92 494
252 23 33 41 63 41 67 0 4 -21 14 -47 23 -27 8 -85 29 -129 46 l-81 30 -37
-49 c-43 -58 -102 -94 -178 -108 -67 -12 -162 0 -217 28 -117 61 -191 211
-191 391 0 183 71 324 194 387 68 35 181 43 256 18 51 -17 133 -84 157 -128 9
-18 18 -16 139 34 71 29 131 53 132 55 2 1 -15 30 -37 63 -78 115 -217 206
-359 236 -72 16 -202 18 -267 5z"/>
<path d="M3410 5115 l0 -665 453 2 452 3 0 125 0 125 -307 3 -308 2 0 145 0
145 265 0 265 0 0 120 0 120 -265 0 -265 0 0 145 0 145 305 0 305 0 0 125 0
125 -450 0 -450 0 0 -665z"/>
<path d="M4540 5115 l0 -665 140 0 140 0 0 235 0 235 88 0 88 0 133 -230 132
-229 150 -3 c118 -2 148 0 144 10 -2 7 -66 119 -141 248 -74 130 -134 237
-132 239 2 2 25 13 50 24 146 62 228 243 199 437 -22 147 -98 258 -215 313
-98 46 -143 51 -471 51 l-305 0 0 -665z m620 393 c64 -33 84 -66 88 -146 3
-55 -1 -75 -20 -111 -38 -73 -73 -85 -255 -89 l-153 -4 0 186 0 186 148 0
c134 0 152 -2 192 -22z"/>
<path d="M5660 5655 l0 -125 195 0 195 0 0 -540 0 -540 135 0 135 0 0 540 0
540 190 0 190 0 0 125 0 125 -520 0 -520 0 0 -125z"/>
<path d="M6892 5118 l3 -663 138 -3 137 -3 0 666 0 665 -140 0 -140 0 2 -662z"/>
<path d="M8680 5125 c0 -360 0 -658 0 -662 0 -5 193 -9 430 -11 l430 -2 0 130
0 131 -290 -3 -290 -3 0 153 0 152 255 0 255 0 0 120 0 120 -255 0 -255 0 0
140 0 140 285 0 285 0 0 125 0 125 -425 0 -425 0 0 -655z"/>
</g>
</svg>
